<svg width="225" height="43" viewBox="0 0 225 43" fill="none" xmlns="http://www.w3.org/2000/svg">
<g clip-path="url(#clip0_4218_1654)">
<path fill-rule="evenodd" clip-rule="evenodd" d="M32.2994 38.5628C32.2992 38.6734 32.2584 38.7793 32.1858 38.8575C32.1133 38.9356 32.0149 38.9795 31.9123 38.9795H8.71823C8.61624 38.9786 8.5187 38.9343 8.44689 38.8563C8.37507 38.7782 8.33481 38.6727 8.33488 38.5628V21.2538L20.0001 10.7074L32.2994 21.8273V38.5628ZM38.8452 18.2144L34.625 14.3989V3.09636C34.6242 2.54049 34.4189 2.00765 34.0541 1.61467C33.6893 1.22169 33.1948 1.00065 32.679 1H29.7562C29.2404 1.00065 28.7459 1.22169 28.3811 1.61467C28.0163 2.00765 27.8109 2.54049 27.8101 3.09636V8.23766L21.4007 2.44531C21.008 2.0894 20.5114 1.89426 19.9984 1.89426C19.4853 1.89426 18.9887 2.0894 18.596 2.44531L1.15506 18.2144C0.498547 18.8111 0.0878025 19.6636 0.0125221 20.5856C-0.0627583 21.5075 0.203542 22.4242 0.753269 23.1353L0.941235 23.3772C1.49442 24.0859 2.28582 24.5292 3.14189 24.61C3.99796 24.6908 4.84882 24.4024 5.50789 23.8082L6.45881 22.949V38.5628C6.45922 39.2087 6.69733 39.828 7.12091 40.2849C7.54448 40.7418 8.11893 40.999 8.71823 41H31.9124C32.5121 40.9991 33.087 40.7421 33.5112 40.2853C33.9354 39.8284 34.1742 39.2091 34.1755 38.5628V23.5226L34.4925 23.8082C35.1508 24.4026 36.0011 24.6911 36.8567 24.6103C37.7122 24.5295 38.503 24.086 39.0554 23.3772L39.2433 23.1353C39.7947 22.4252 40.0624 21.5085 39.9877 20.5861C39.913 19.6637 39.5021 18.8108 38.8449 18.2144H38.8452ZM21.2533 33.949H25.7977V29.0507H21.2533V33.949ZM21.2533 27.0302H25.7977V22.1324H21.2533V27.0302ZM19.3772 22.1324H14.8327V27.0302H19.3772V22.1324ZM14.8327 29.0507V33.949H19.3772V29.0507H14.8327Z" fill="white"/>
<path d="M57.592 38.04C56.4187 38.04 55.3307 37.8587 54.328 37.496C53.3467 37.1333 52.4933 36.632 51.768 35.992C51.064 35.3733 50.52 34.648 50.136 33.816L52.344 32.632C52.6853 33.4427 53.2933 34.1467 54.168 34.744C55.0427 35.3413 56.1627 35.64 57.528 35.64C58.5733 35.64 59.5333 35.4373 60.408 35.032C61.2827 34.6267 61.9867 34.0293 62.52 33.24C63.0533 32.4507 63.32 31.48 63.32 30.328V26.52L63.704 26.872C63.1067 28.1093 62.2213 29.0693 61.048 29.752C59.8747 30.4133 58.5947 30.744 57.208 30.744C55.608 30.744 54.168 30.36 52.888 29.592C51.608 28.824 50.5947 27.7893 49.848 26.488C49.1227 25.1653 48.76 23.704 48.76 22.104C48.76 20.4827 49.1227 19.0213 49.848 17.72C50.5947 16.4187 51.5973 15.384 52.856 14.616C54.136 13.848 55.5867 13.464 57.208 13.464C58.5947 13.464 59.8533 13.784 60.984 14.424C62.136 15.064 63.0427 15.928 63.704 17.016L63.32 17.688V13.848H65.72V30.328C65.72 31.8 65.368 33.112 64.664 34.264C63.9813 35.4373 63.0213 36.3547 61.784 37.016C60.568 37.6987 59.1707 38.04 57.592 38.04ZM57.336 28.344C58.4453 28.344 59.448 28.0667 60.344 27.512C61.24 26.936 61.9547 26.1787 62.488 25.24C63.0427 24.28 63.32 23.2347 63.32 22.104C63.32 20.9733 63.0427 19.9387 62.488 19C61.9547 18.04 61.24 17.2827 60.344 16.728C59.448 16.152 58.4453 15.864 57.336 15.864C56.2053 15.864 55.1813 16.152 54.264 16.728C53.3467 17.2827 52.6213 18.0293 52.088 18.968C51.576 19.9067 51.32 20.952 51.32 22.104C51.32 23.2347 51.576 24.28 52.088 25.24C52.6213 26.1787 53.336 26.936 54.232 27.512C55.1493 28.0667 56.184 28.344 57.336 28.344ZM72.8115 31.384C71.7235 31.384 70.7528 31.1813 69.8995 30.776C69.0462 30.3493 68.3742 29.7733 67.8835 29.048C67.3928 28.3227 67.1475 27.4907 67.1475 26.552C67.1475 25.656 67.3395 24.8453 67.7235 24.12C68.1075 23.3733 68.7048 22.744 69.5155 22.232C70.3262 21.72 71.3608 21.3573 72.6195 21.144L79.3395 20.024V22.2L73.1955 23.224C71.9582 23.4373 71.0622 23.832 70.5075 24.408C69.9742 24.984 69.7075 25.6667 69.7075 26.456C69.7075 27.224 70.0062 27.8747 70.6035 28.408C71.2222 28.9413 72.0115 29.208 72.9715 29.208C74.1448 29.208 75.1688 28.9627 76.0435 28.472C76.9182 27.96 77.6008 27.2773 78.0915 26.424C78.5822 25.5707 78.8275 24.6213 78.8275 23.576V19.224C78.8275 18.2 78.4542 17.368 77.7075 16.728C76.9608 16.088 75.9902 15.768 74.7955 15.768C73.7502 15.768 72.8328 16.0347 72.0435 16.568C71.2542 17.08 70.6675 17.752 70.2835 18.584L68.1075 17.4C68.4275 16.6747 68.9288 16.0133 69.6115 15.416C70.3155 14.8187 71.1155 14.3493 72.0115 14.008C72.9075 13.6453 73.8355 13.464 74.7955 13.464C76.0542 13.464 77.1635 13.7093 78.1235 14.2C79.1048 14.6907 79.8622 15.3733 80.3955 16.248C80.9502 17.1013 81.2275 18.0933 81.2275 19.224V31H78.8275V27.576L79.1795 27.928C78.8808 28.568 78.4115 29.1547 77.7715 29.688C77.1528 30.2 76.4168 30.616 75.5635 30.936C74.7315 31.2347 73.8142 31.384 72.8115 31.384ZM89.6115 31.192C88.0755 31.192 86.8915 30.744 86.0595 29.848C85.2275 28.952 84.8115 27.672 84.8115 26.008V16.248H81.6435V13.848H82.4435C83.1688 13.848 83.7448 13.6133 84.1715 13.144C84.5982 12.6533 84.8115 12.0453 84.8115 11.32V9.88H87.2115V13.848H90.9875V16.248H87.2115V26.008C87.2115 26.584 87.2968 27.096 87.4675 27.544C87.6382 27.9707 87.9262 28.312 88.3315 28.568C88.7582 28.824 89.3235 28.952 90.0275 28.952C90.1982 28.952 90.4008 28.9413 90.6355 28.92C90.8702 28.8987 91.0728 28.8773 91.2435 28.856V31C90.9875 31.064 90.6995 31.1067 90.3795 31.128C90.0595 31.1707 89.8035 31.192 89.6115 31.192ZM99.8407 31.384C98.2407 31.384 96.7901 31 95.4887 30.232C94.2087 29.4427 93.1954 28.3653 92.4487 27C91.7021 25.6347 91.3287 24.088 91.3287 22.36C91.3287 20.632 91.6914 19.1067 92.4167 17.784C93.1421 16.44 94.1234 15.384 95.3607 14.616C96.6194 13.848 98.0274 13.464 99.5847 13.464C100.822 13.464 101.921 13.6987 102.881 14.168C103.862 14.616 104.694 15.2347 105.377 16.024C106.059 16.792 106.582 17.6667 106.945 18.648C107.307 19.608 107.489 20.6 107.489 21.624C107.489 21.8373 107.478 22.0827 107.457 22.36C107.435 22.616 107.403 22.8827 107.361 23.16H92.8647V20.92H105.985L104.833 21.88C105.025 20.7067 104.886 19.6613 104.417 18.744C103.969 17.8053 103.318 17.0693 102.465 16.536C101.611 15.9813 100.651 15.704 99.5847 15.704C98.5181 15.704 97.5261 15.9813 96.6087 16.536C95.7127 17.0907 95.0087 17.8693 94.4967 18.872C93.9847 19.8533 93.7821 21.0267 93.8887 22.392C93.7821 23.7573 93.9954 24.952 94.5287 25.976C95.0834 26.9787 95.8301 27.7573 96.7687 28.312C97.7287 28.8667 98.7527 29.144 99.8407 29.144C101.099 29.144 102.155 28.8453 103.009 28.248C103.862 27.6507 104.555 26.904 105.089 26.008L107.137 27.096C106.795 27.864 106.273 28.5787 105.569 29.24C104.865 29.88 104.022 30.4027 103.041 30.808C102.081 31.192 101.014 31.384 99.8407 31.384ZM110.168 31V26.84H113.848V31H110.168ZM122.046 31.384C120.873 31.384 119.838 31.1813 118.942 30.776C118.067 30.3493 117.385 29.7733 116.894 29.048C116.403 28.3013 116.158 27.4267 116.158 26.424C116.158 25.4853 116.361 24.6427 116.766 23.896C117.193 23.1493 117.843 22.52 118.718 22.008C119.593 21.496 120.691 21.1333 122.014 20.92L128.03 19.928V22.776L122.718 23.704C121.758 23.8747 121.054 24.184 120.606 24.632C120.158 25.0587 119.934 25.6133 119.934 26.296C119.934 26.9573 120.179 27.5013 120.67 27.928C121.182 28.3333 121.833 28.536 122.622 28.536C123.603 28.536 124.457 28.3227 125.182 27.896C125.929 27.4693 126.505 26.904 126.91 26.2C127.315 25.4747 127.518 24.6747 127.518 23.8V19.352C127.518 18.4987 127.198 17.8053 126.558 17.272C125.939 16.7173 125.107 16.44 124.062 16.44C123.102 16.44 122.259 16.696 121.534 17.208C120.83 17.6987 120.307 18.3387 119.966 19.128L116.958 17.624C117.278 16.7707 117.801 16.024 118.526 15.384C119.251 14.7227 120.094 14.2107 121.054 13.848C122.035 13.4853 123.07 13.304 124.158 13.304C125.523 13.304 126.729 13.56 127.774 14.072C128.841 14.584 129.662 15.2987 130.238 16.216C130.835 17.112 131.134 18.1573 131.134 19.352V31H127.678V27.864L128.414 27.96C128.009 28.664 127.486 29.272 126.846 29.784C126.227 30.296 125.513 30.6907 124.702 30.968C123.913 31.2453 123.027 31.384 122.046 31.384ZM134.358 31V16.952H131.158V13.688H134.358V12.792C134.358 11.4907 134.624 10.4027 135.158 9.528C135.691 8.632 136.427 7.94933 137.366 7.48C138.326 7.01067 139.424 6.776 140.662 6.776C140.896 6.776 141.163 6.79733 141.462 6.84C141.76 6.86133 142.006 6.89333 142.198 6.936V10.072C142.027 10.0293 141.835 10.008 141.622 10.008C141.408 9.98667 141.238 9.976 141.11 9.976C140.15 9.976 139.382 10.2 138.806 10.648C138.23 11.0747 137.942 11.7893 137.942 12.792V13.688H141.91V16.952H137.942V31H134.358ZM142.325 31V13.688H145.781V17.176L145.461 16.664C145.845 15.5333 146.463 14.7227 147.317 14.232C148.17 13.72 149.194 13.464 150.389 13.464H151.445V16.76H149.941C148.746 16.76 147.775 17.1333 147.029 17.88C146.303 18.6053 145.941 19.6507 145.941 21.016V31H142.325ZM151.118 31V13.688H154.734V31H151.118ZM151.118 11.32V7.16H154.734V11.32H151.118ZM164.386 31.384C162.658 31.384 161.122 30.9893 159.778 30.2C158.455 29.3893 157.399 28.3013 156.61 26.936C155.842 25.5707 155.458 24.024 155.458 22.296C155.458 20.5893 155.842 19.0533 156.61 17.688C157.378 16.3227 158.434 15.256 159.778 14.488C161.122 13.6987 162.658 13.304 164.386 13.304C165.559 13.304 166.658 13.5173 167.682 13.944C168.706 14.3493 169.591 14.9147 170.338 15.64C171.106 16.3653 171.671 17.208 172.034 18.168L168.866 19.64C168.503 18.744 167.917 18.0293 167.106 17.496C166.317 16.9413 165.41 16.664 164.386 16.664C163.405 16.664 162.519 16.9093 161.73 17.4C160.962 17.8693 160.354 18.5413 159.906 19.416C159.458 20.2693 159.234 21.24 159.234 22.328C159.234 23.416 159.458 24.3973 159.906 25.272C160.354 26.1253 160.962 26.7973 161.73 27.288C162.519 27.7787 163.405 28.024 164.386 28.024C165.431 28.024 166.338 27.7573 167.106 27.224C167.895 26.6693 168.482 25.9333 168.866 25.016L172.034 26.52C171.693 27.4373 171.138 28.2693 170.37 29.016C169.623 29.7413 168.738 30.3173 167.714 30.744C166.69 31.1707 165.581 31.384 164.386 31.384ZM177.796 31.384C176.623 31.384 175.588 31.1813 174.692 30.776C173.817 30.3493 173.135 29.7733 172.644 29.048C172.153 28.3013 171.908 27.4267 171.908 26.424C171.908 25.4853 172.111 24.6427 172.516 23.896C172.943 23.1493 173.593 22.52 174.468 22.008C175.343 21.496 176.441 21.1333 177.764 20.92L183.78 19.928V22.776L178.468 23.704C177.508 23.8747 176.804 24.184 176.356 24.632C175.908 25.0587 175.684 25.6133 175.684 26.296C175.684 26.9573 175.929 27.5013 176.42 27.928C176.932 28.3333 177.583 28.536 178.372 28.536C179.353 28.536 180.207 28.3227 180.932 27.896C181.679 27.4693 182.255 26.904 182.66 26.2C183.065 25.4747 183.268 24.6747 183.268 23.8V19.352C183.268 18.4987 182.948 17.8053 182.308 17.272C181.689 16.7173 180.857 16.44 179.812 16.44C178.852 16.44 178.009 16.696 177.284 17.208C176.58 17.6987 176.057 18.3387 175.716 19.128L172.708 17.624C173.028 16.7707 173.551 16.024 174.276 15.384C175.001 14.7227 175.844 14.2107 176.804 13.848C177.785 13.4853 178.82 13.304 179.908 13.304C181.273 13.304 182.479 13.56 183.524 14.072C184.591 14.584 185.412 15.2987 185.988 16.216C186.585 17.112 186.884 18.1573 186.884 19.352V31H183.428V27.864L184.164 27.96C183.759 28.664 183.236 29.272 182.596 29.784C181.977 30.296 181.263 30.6907 180.452 30.968C179.663 31.2453 178.777 31.384 177.796 31.384Z" fill="white"/>
</g>
<defs>
<clipPath id="clip0_4218_1654">
<rect width="225" height="40" fill="white"/>
</clipPath>
</defs>
</svg>
