<svg width="20" height="21" viewBox="0 0 20 21" fill="none" xmlns="http://www.w3.org/2000/svg">
<path d="M14.1666 2.16016H3.33329C2.72564 2.1606 2.143 2.40218 1.71333 2.83186C1.28365 3.26153 1.04207 3.84417 1.04163 4.45182V7.78516C1.04163 7.95092 1.10747 8.10989 1.22468 8.2271C1.34189 8.34431 1.50087 8.41016 1.66663 8.41016C2.01163 8.41016 16.4583 8.96349 16.4583 8.61849V4.45182C16.4579 3.84417 16.2163 3.26153 15.7866 2.83186C15.3569 2.40218 14.7743 2.1606 14.1666 2.16016Z" fill="#047EFF"/>
<path d="M16.6666 6.32617H1.66663C1.50087 6.32617 1.34189 6.39202 1.22468 6.50923C1.10747 6.62644 1.04163 6.78541 1.04163 6.95117V16.1178C1.04207 16.7255 1.28365 17.3081 1.71333 17.7378C2.143 18.1675 2.72564 18.4091 3.33329 18.4095H16.6666C17.2743 18.4091 17.8569 18.1675 18.2866 17.7378C18.7163 17.3081 18.9579 16.7255 18.9583 16.1178V8.61784C18.9579 8.01019 18.7163 7.42755 18.2866 6.99787C17.8569 6.5682 17.2743 6.32661 16.6666 6.32617Z" fill="#6FB4FD"/>
<path d="M13.75 14.2441C14.7855 14.2441 15.625 13.4047 15.625 12.3691C15.625 11.3336 14.7855 10.4941 13.75 10.4941C12.7145 10.4941 11.875 11.3336 11.875 12.3691C11.875 13.4047 12.7145 14.2441 13.75 14.2441Z" fill="#EDEBEA"/>
</svg>
