<svg width="15" height="15" viewBox="0 0 15 15" fill="none" xmlns="http://www.w3.org/2000/svg">
<path d="M14.4089 8.75022C14.7595 9.10076 14.7595 9.66964 14.4089 10.0202L13.3307 11.0983C12.5866 10.4865 11.4852 10.5924 10.8734 11.3398C10.3443 11.9847 10.3443 12.9107 10.8734 13.5556L10.0235 14.4055C9.67296 14.7562 9.10407 14.7562 8.75343 14.4055L3.72982 9.38526L3.25684 7.9829L3.27343 7.97638L7.97626 3.27343L7.9829 3.25684L9.38514 3.72982L14.4089 8.75022ZM9.22973 9.22973L10.4699 8.84613L9.41169 8.09539L9.42817 6.79889L8.38642 7.57618L7.15606 7.15938L7.57286 8.38974L6.79557 9.43149L8.09207 9.41501L8.84281 10.4732L9.22973 9.22973Z" fill="#77F7AA"/>
<path d="M10.4699 8.84606L9.22967 9.22967L8.84607 10.47L8.09534 9.41163L6.79895 9.42811L7.5728 8.38635L7.15601 7.15611L8.38636 7.57279L9.42811 6.79883L9.41163 8.09533L10.4699 8.84606Z" fill="#DEFFE8"/>
<path d="M7.97619 3.25338L7.98283 3.25658L7.97619 3.27317L3.27336 7.97612L3.25676 7.98264L3.25356 7.97612L1.84468 7.49982L0.594528 6.24966C0.243881 5.89913 0.243881 5.33025 0.594528 4.97971L1.57677 3.99415C2.24476 4.45054 3.17746 4.37455 3.78605 3.78575C4.39454 3.19707 4.45073 2.26117 3.99434 1.57659L4.9799 0.591024C5.33043 0.240492 5.89932 0.240492 6.24985 0.591024L7.5 1.84449L7.97619 3.25338Z" fill="#DEFFE8"/>
<path d="M9.61992 3.49494C9.58365 3.45854 9.54062 3.43211 9.49095 3.41563L8.23759 2.9922L7.81416 1.73884C7.79768 1.68918 7.77125 1.64615 7.73485 1.60987L6.4847 0.359716C6.0052 -0.119905 5.22791 -0.119905 4.74841 0.359716L3.76284 1.34196C3.65046 1.45434 3.63387 1.62967 3.72313 1.75864C4.10685 2.33084 4.03739 3.0849 3.55776 3.54781C3.06498 4.02411 2.31093 4.0969 1.76528 3.72313C1.63298 3.63387 1.45766 3.65035 1.34528 3.76284L0.359716 4.74841C-0.119905 5.22791 -0.119905 6.0052 0.359716 6.4847L1.60987 7.73485C1.64615 7.77125 1.68918 7.79768 1.73884 7.81416L2.99231 8.23748L3.41563 9.49095C3.43211 9.54062 3.45854 9.58365 3.49494 9.61992L8.51534 14.6403C8.99496 15.1199 9.77213 15.1199 10.2516 14.6403L11.1016 13.7904C11.224 13.668 11.2306 13.4762 11.1215 13.3439C10.6254 12.7387 10.7147 11.849 11.3166 11.353C11.8392 10.9264 12.5899 10.9264 13.1124 11.353C13.2447 11.4621 13.4365 11.4522 13.5589 11.3331L14.637 10.255C15.1166 9.77545 15.1166 8.99828 14.637 8.51866L9.61992 3.49494ZM2.02323 7.21232L0.826062 6.01504C0.604391 5.79348 0.604391 5.43631 0.826062 5.21475L1.62967 4.41104C2.40363 4.79796 3.36928 4.65251 4.01415 4.02411C4.65582 3.40235 4.8046 2.43338 4.40772 1.63298L5.21143 0.829267C5.43299 0.607709 5.79016 0.607709 6.01183 0.829267L7.209 2.02655L7.59924 3.1808L3.17748 7.60256L2.02323 7.21232ZM14.1741 9.78529L13.2911 10.6683C12.3055 10.0764 11.0288 10.3972 10.4369 11.3795C10.04 12.0376 10.04 12.861 10.4369 13.5192L9.78541 14.1707C9.56373 14.3923 9.20656 14.3923 8.98501 14.1707L4.01747 9.20656L3.63719 8.07875L8.07875 3.63719L9.20656 4.01747L14.174 8.98501C14.3957 9.20656 14.3957 9.56373 14.1741 9.78529Z" fill="#24B361"/>
<path d="M10.6618 8.57451L9.74242 7.92632L9.75559 6.80183C9.7589 6.61998 9.61345 6.46777 9.42817 6.46777C9.35539 6.46777 9.28603 6.491 9.22641 6.53403L8.32691 7.20534L7.26192 6.84486C7.09003 6.78535 6.90143 6.87793 6.84192 7.05325C6.81881 7.12272 6.81881 7.19539 6.84192 7.26485L7.20241 8.32984L6.5311 9.22934C6.455 9.32868 6.44504 9.46086 6.50135 9.57335C6.55754 9.68253 6.67324 9.75188 6.79557 9.74856H6.79889L7.92339 9.73872L8.57158 10.6581C8.67744 10.8069 8.88252 10.8433 9.03129 10.7408C9.09091 10.6978 9.13715 10.6382 9.15706 10.5689L9.491 9.49393L10.5659 9.15999C10.7411 9.10701 10.8371 8.92184 10.7842 8.74652C10.7644 8.67705 10.7214 8.61754 10.6618 8.57451ZM9.13383 8.9152C9.03129 8.94828 8.94866 9.02759 8.91559 9.13344L8.73031 9.73208L8.36662 9.22282C8.30379 9.13676 8.20457 9.08721 8.09539 9.08721H8.09207L7.46368 9.09041L7.84076 8.58447C7.90691 8.49853 7.92339 8.38271 7.89031 8.28017L7.68856 7.68485L8.28388 7.88661C8.38642 7.923 8.50212 7.9032 8.58817 7.83706L9.09091 7.45998L9.08428 8.08837C9.08428 8.19755 9.13383 8.30009 9.22309 8.36291L9.73579 8.72672L9.13383 8.9152Z" fill="#24B361"/>
</svg>
